<?xml version="1.0" encoding="utf-8"?>
<!-- Generator: Adobe Illustrator 16.0.0, SVG Export Plug-In . SVG Version: 6.00 Build 0)  -->
<!DOCTYPE svg PUBLIC "-//W3C//DTD SVG 1.1//EN" "http://www.w3.org/Graphics/SVG/1.1/DTD/svg11.dtd">
<svg version="1.1" id="Layer_1" xmlns="http://www.w3.org/2000/svg" xmlns:xlink="http://www.w3.org/1999/xlink" x="0px" y="0px"
	 width="100%" height="100%" viewBox="0 0 697.014 199.192" enable-background="new 0 0 697.014 199.192"
	 xml:space="preserve">
<g id="svg2" xmlns:svg="http://www.w3.org/2000/svg">



	<g id="rightusb">
		<path fill="#3A3A3A" d="M423.498,50.969v34.308l-17.682,0.002c-3.331,0-11.598-1.854-16.135-4.584
			c-0.526,0.275-1.117,0.449-1.756,0.447c-2.096,0-3.797-1.701-3.797-3.797v-0.248h-12.01v-5.646l-38.757,0.021l-11.5-7.908h50.258
			v-5.821l12.101-0.001c0.369-1.71,1.888-2.991,3.707-2.991c0.559,0,1.084,0.126,1.56,0.342c4.481-2.477,13.192-4.125,16.333-4.125
			L423.498,50.969z M432.433,80.483V55.132l21.326,0.001v25.35H432.433z M445.464,70.94l0.002,5.113h3.834V70.94H445.464z
			 M445.527,63.962h3.835v-5.113h-3.835V63.962z"/>
		<path fill="#3A3A3A" stroke="#FFFFFF" stroke-width="2" stroke-miterlimit="10" d="M230.364,78.205"/>
		<path fill="#999999" stroke="#FFFFFF" stroke-width="2" stroke-miterlimit="10" d="M243.59,53.992"/>
		<animateTransform attributeName="transform" type="translateX"
		     values="0;33;0" begin="0s" dur="1.5s" fill="freeze"
		     repeatCount="indefinite" />
	</g>
	<g id="leftusb">
		<path fill="#3A3A3A" d="M222.143,101.791V86.444l7.909-0.001c1.49,0,5.188,0.829,7.217,2.05c0.236-0.123,0.5-0.201,0.786-0.2
			c0.938,0,1.699,0.761,1.699,1.699v0.111h5.373l0.498,3.092l31.249-0.041l5.933,2.457l-37.68,0.547v2.604h-5.413
			c-0.166,0.765-0.844,1.338-1.658,1.338c-0.25,0-0.484-0.057-0.697-0.153c-2.005,1.107-5.901,1.845-7.306,1.845H222.143z
			 M218.146,88.588v11.34h-9.541l0.001-11.34H218.146z M212.316,92.857V90.57h-1.715v2.287H212.316z M212.288,95.979h-1.716v2.287
			h1.716V95.979z"/>
		<path fill="#3A3A3A" stroke="#FFFFFF" stroke-width="2" stroke-miterlimit="10" d="M383.365,103.497"/>
		<path fill="#999999" stroke="#FFFFFF" stroke-width="2" stroke-miterlimit="10" d="M294.307,54.681"/>
		<animateTransform attributeName="transform" type="translateX"
		     values="0;-13;0" begin="0s" dur="1.5s" fill="freeze"
		     repeatCount="indefinite" />
	</g>
	<g id="Laptop">
		<g>
			<g>
				<path fill="none" d="M164.637,114.174"/>
				<path fill="#424242" d="M206.618,103.548c-1.235-0.183-1.768,1.706-0.521,1.891l0,0"/>
			</g>
		</g>
		<path fill="#F1F1F1" d="M205.471,182.171c0,0.973-0.815,1.76-1.822,1.76H39.319c-1.006,0-1.822-0.787-1.822-1.76V75.674
			c0-0.972,0.816-1.76,1.822-1.76h164.33c1.007,0,1.822,0.788,1.822,1.76V182.171z"/>
		<g>
			<path fill="#424242" d="M189,89.724h5.229c0.596,0,1.081,0.486,1.081,1.08v3.887c0,0.593-0.484,1.082-1.081,1.082H189
				c-0.594,0-1.081-0.488-1.081-1.082v-3.887C187.919,90.209,188.405,89.724,189,89.724"/>
			<path fill="#424242" d="M189.238,97.136h4.75c0.728,0,1.322,0.596,1.322,1.32v5.268c0,0.726-0.594,1.32-1.322,1.32h-4.75
				c-0.725,0-1.319-0.595-1.319-1.32v-5.268C187.919,97.731,188.514,97.136,189.238,97.136"/>
			<path fill="#424242" d="M189.238,106.411h4.75c0.728,0,1.322,0.593,1.322,1.318v5.265c0,0.728-0.594,1.321-1.322,1.321h-4.75
				c-0.725,0-1.319-0.594-1.319-1.321v-5.265C187.919,107.003,188.514,106.411,189.238,106.411"/>
			<path fill="#424242" d="M189.238,115.685h4.75c0.728,0,1.322,0.594,1.322,1.319v5.265c0,0.727-0.594,1.318-1.322,1.318h-4.75
				c-0.725,0-1.319-0.593-1.319-1.318v-5.265C187.919,116.278,188.514,115.685,189.238,115.685"/>
			<path fill="#424242" d="M189.238,124.955h4.75c0.728,0,1.322,0.594,1.322,1.319v5.266c0,0.725-0.594,1.318-1.322,1.318h-4.75
				c-0.725,0-1.319-0.594-1.319-1.318v-5.266C187.919,125.548,188.514,124.955,189.238,124.955"/>
			<path fill="#424242" d="M189.238,134.228h4.75c0.728,0,1.322,0.593,1.322,1.318v5.266c0,0.725-0.594,1.317-1.322,1.317h-4.75
				c-0.725,0-1.319-0.593-1.319-1.317v-5.266C187.919,134.82,188.514,134.228,189.238,134.228"/>
			<path fill="#424242" d="M179.76,89.724h5.231c0.592,0,1.082,0.486,1.082,1.08v3.887c0,0.593-0.489,1.082-1.081,1.082h-5.232
				c-0.594,0-1.079-0.488-1.079-1.082v-3.887C178.681,90.209,179.166,89.724,179.76,89.724"/>
			<path fill="#424242" d="M171.56,97.136h13.097c0.778,0,1.415,0.639,1.415,1.414v5.081c0,0.777-0.636,1.414-1.415,1.414H171.56
				c-0.777,0-1.413-0.636-1.413-1.414V98.55C170.147,97.774,170.782,97.136,171.56,97.136"/>
			<path fill="#424242" d="M177.573,106.411h7.083c0.778,0,1.416,0.635,1.416,1.411v5.079c0,0.779-0.637,1.414-1.416,1.414h-7.083
				c-0.778,0-1.412-0.635-1.412-1.414v-5.079C176.161,107.046,176.796,106.411,177.573,106.411"/>
			<path fill="#424242" d="M170.518,115.685h14.14c0.777,0,1.414,0.631,1.414,1.41v5.082c0,0.775-0.636,1.411-1.414,1.411h-14.14
				c-0.777,0-1.412-0.636-1.412-1.411v-5.082C169.106,116.315,169.741,115.685,170.518,115.685"/>
			<path fill="#424242" d="M180,124.955h4.749c0.728,0,1.323,0.594,1.323,1.319v5.266c0,0.725-0.595,1.318-1.323,1.318H180
				c-0.725,0-1.319-0.594-1.319-1.318v-5.266C178.681,125.548,179.275,124.955,180,124.955"/>
			<path fill="#424242" d="M180,134.228h4.749c0.728,0,1.323,0.593,1.323,1.318v5.266c0,0.725-0.595,1.317-1.323,1.317H180
				c-0.725,0-1.319-0.593-1.319-1.317v-5.266C178.681,134.82,179.275,134.228,180,134.228"/>
			<path fill="#424242" d="M171.228,89.724h4.523c0.595,0,1.082,0.486,1.082,1.08v3.887c0,0.593-0.485,1.082-1.081,1.082h-4.524
				c-0.596,0-1.081-0.488-1.081-1.082v-3.887C170.147,90.209,170.632,89.724,171.228,89.724"/>
			<path fill="#424242" d="M162.553,89.724h4.526c0.594,0,1.081,0.486,1.081,1.08v3.887c0,0.593-0.486,1.082-1.081,1.082h-4.525
				c-0.594,0-1.08-0.488-1.08-1.082v-3.887C161.475,90.209,161.96,89.724,162.553,89.724"/>
			<path fill="#424242" d="M153.881,89.724h4.524c0.594,0,1.082,0.486,1.082,1.08v3.887c0,0.593-0.486,1.082-1.082,1.082h-4.524
				c-0.594,0-1.081-0.488-1.081-1.082v-3.887C152.801,90.209,153.287,89.724,153.881,89.724"/>
			<path fill="#424242" d="M145.208,89.724h4.525c0.593,0,1.081,0.486,1.081,1.08v3.887c0,0.593-0.486,1.082-1.08,1.082h-4.526
				c-0.594,0-1.081-0.488-1.081-1.082v-3.887C144.128,90.209,144.614,89.724,145.208,89.724"/>
			<path fill="#424242" d="M136.537,89.724h4.523c0.593,0,1.08,0.486,1.08,1.08v3.887c0,0.593-0.486,1.082-1.08,1.082h-4.522
				c-0.597,0-1.084-0.488-1.084-1.082v-3.887C135.453,90.209,135.941,89.724,136.537,89.724"/>
			<path fill="#424242" d="M127.863,89.724h4.523c0.596,0,1.083,0.486,1.083,1.08v3.887c0,0.593-0.485,1.082-1.081,1.082h-4.524
				c-0.593,0-1.082-0.488-1.082-1.082v-3.887C126.782,90.209,127.271,89.724,127.863,89.724"/>
			<path fill="#424242" d="M119.191,89.724h4.524c0.596,0,1.08,0.486,1.08,1.08v3.887c0,0.593-0.484,1.082-1.08,1.082h-4.524
				c-0.594,0-1.081-0.488-1.081-1.082v-3.887C118.11,90.209,118.596,89.724,119.191,89.724"/>
			<path fill="#424242" d="M110.518,89.724h4.524c0.595,0,1.082,0.486,1.082,1.08v3.887c0,0.593-0.486,1.082-1.081,1.082h-4.525
				c-0.594,0-1.081-0.488-1.081-1.082v-3.887C109.437,90.209,109.923,89.724,110.518,89.724"/>
			<path fill="#424242" d="M101.844,89.724h4.525c0.595,0,1.08,0.486,1.08,1.08v3.887c0,0.593-0.485,1.082-1.08,1.082h-4.525
				c-0.593,0-1.08-0.488-1.08-1.082v-3.887C100.765,90.209,101.251,89.724,101.844,89.724"/>
			<path fill="#424242" d="M93.172,89.724h4.525c0.595,0,1.081,0.486,1.081,1.08v3.887c0,0.593-0.486,1.082-1.081,1.082h-4.525
				c-0.593,0-1.08-0.488-1.08-1.082v-3.887C92.092,90.209,92.578,89.724,93.172,89.724"/>
			<path fill="#424242" d="M84.499,89.724h4.525c0.594,0,1.081,0.486,1.081,1.08v3.887c0,0.593-0.487,1.082-1.081,1.082h-4.525
				c-0.594,0-1.08-0.488-1.08-1.082v-3.887C83.419,90.209,83.905,89.724,84.499,89.724"/>
			<path fill="#424242" d="M75.826,89.724h4.525c0.594,0,1.081,0.486,1.081,1.08v3.887c0,0.593-0.486,1.082-1.081,1.082h-4.525
				c-0.594,0-1.08-0.488-1.08-1.082v-3.887C74.747,90.209,75.232,89.724,75.826,89.724"/>
			<path fill="#424242" d="M67.154,89.724h4.523c0.594,0,1.081,0.486,1.081,1.08v3.887c0,0.593-0.486,1.082-1.081,1.082h-4.523
				c-0.595,0-1.081-0.488-1.081-1.082v-3.887C66.074,90.209,66.559,89.724,67.154,89.724"/>
			<path fill="#424242" d="M58.48,89.724h4.525c0.594,0,1.082,0.486,1.082,1.08v3.887c0,0.593-0.487,1.082-1.082,1.082H58.48
				c-0.594,0-1.08-0.488-1.08-1.082v-3.887C57.401,90.209,57.886,89.724,58.48,89.724"/>
			<path fill="#424242" d="M48.739,89.724h5.229c0.596,0,1.081,0.486,1.081,1.08v3.887c0,0.593-0.485,1.082-1.081,1.082h-5.229
				c-0.595,0-1.081-0.488-1.081-1.082v-3.887C47.658,90.209,48.144,89.724,48.739,89.724"/>
			<path fill="#424242" d="M162.202,97.136h4.661c0.712,0,1.296,0.584,1.296,1.297v5.313c0,0.712-0.584,1.297-1.296,1.297h-4.661
				c-0.712,0-1.297-0.584-1.297-1.297v-5.313C160.905,97.72,161.49,97.136,162.202,97.136"/>
			<path fill="#424242" d="M152.792,97.136h4.663c0.714,0,1.295,0.584,1.295,1.297v5.313c0,0.712-0.581,1.297-1.295,1.297h-4.663
				c-0.711,0-1.297-0.584-1.297-1.297v-5.313C151.495,97.72,152.081,97.136,152.792,97.136"/>
			<path fill="#424242" d="M143.382,97.136h4.663c0.712,0,1.294,0.584,1.294,1.297v5.313c0,0.712-0.582,1.297-1.294,1.297h-4.663
				c-0.713,0-1.296-0.584-1.296-1.297v-5.313C142.086,97.72,142.669,97.136,143.382,97.136"/>
			<path fill="#424242" d="M133.973,97.136h4.662c0.713,0,1.295,0.584,1.295,1.297v5.313c0,0.712-0.582,1.297-1.295,1.297h-4.662
				c-0.714,0-1.297-0.584-1.297-1.297v-5.313C132.676,97.72,133.259,97.136,133.973,97.136"/>
			<path fill="#424242" d="M124.563,97.136h4.663c0.711,0,1.295,0.584,1.295,1.297v5.313c0,0.712-0.584,1.297-1.295,1.297
				l-4.663,0.001c-0.711,0-1.293-0.585-1.293-1.298v-5.313C123.269,97.72,123.851,97.136,124.563,97.136"/>
			<path fill="#424242" d="M115.152,97.136h4.664c0.712,0,1.295,0.584,1.295,1.297v5.313c0,0.712-0.583,1.298-1.295,1.298h-4.664
				c-0.712,0-1.295-0.585-1.295-1.298v-5.313C113.857,97.72,114.441,97.136,115.152,97.136"/>
			<path fill="#424242" d="M105.743,97.136h4.664c0.711,0,1.296,0.584,1.296,1.297v5.313c0,0.712-0.585,1.298-1.296,1.298h-4.664
				c-0.711,0-1.295-0.585-1.295-1.298v-5.313C104.448,97.72,105.032,97.136,105.743,97.136"/>
			<path fill="#424242" d="M96.335,97.136h4.662c0.714,0,1.297,0.584,1.297,1.297v5.313c0,0.712-0.583,1.298-1.297,1.298h-4.662
				c-0.713,0-1.295-0.585-1.295-1.298v-5.313C95.039,97.72,95.621,97.136,96.335,97.136"/>
			<path fill="#424242" d="M86.925,97.136h4.662c0.712,0,1.295,0.584,1.295,1.297v5.313c0,0.712-0.583,1.298-1.295,1.298h-4.662
				c-0.712,0-1.295-0.585-1.295-1.298v-5.313C85.63,97.72,86.213,97.136,86.925,97.136"/>
			<path fill="#424242" d="M77.516,97.136h4.661c0.713,0,1.295,0.584,1.295,1.297v5.313c0,0.712-0.582,1.298-1.295,1.298h-4.661
				c-0.713,0-1.296-0.585-1.296-1.298v-5.313C76.22,97.72,76.803,97.136,77.516,97.136"/>
			<path fill="#424242" d="M68.105,97.136h4.664c0.712,0,1.295,0.584,1.295,1.297v5.313c0,0.712-0.583,1.298-1.295,1.298h-4.664
				c-0.712,0-1.294-0.585-1.294-1.298v-5.313C66.81,97.72,67.392,97.136,68.105,97.136"/>
			<path fill="#424242" d="M58.696,97.136h4.662c0.712,0,1.296,0.584,1.296,1.297v5.313c0,0.712-0.584,1.298-1.296,1.298h-4.662
				c-0.712,0-1.296-0.585-1.296-1.298v-5.313C57.401,97.72,57.984,97.136,58.696,97.136"/>
			<path fill="#424242" d="M48.978,97.136h4.751c0.726,0,1.32,0.596,1.32,1.32v5.268c0,0.727-0.595,1.321-1.32,1.321h-4.751
				c-0.726,0-1.32-0.595-1.32-1.321v-5.268C47.658,97.731,48.252,97.136,48.978,97.136"/>
			<path fill="#424242" d="M49.07,106.411h9.773c0.777,0,1.414,0.636,1.414,1.412v5.078c0,0.779-0.636,1.414-1.414,1.414H49.07
				c-0.778,0-1.413-0.635-1.413-1.414v-5.078C47.658,107.046,48.292,106.411,49.07,106.411"/>
			<path fill="#424242" d="M49.07,115.685h11.622c0.776,0,1.412,0.633,1.412,1.412v5.082c0,0.773-0.636,1.409-1.412,1.409H49.07
				c-0.777,0-1.413-0.636-1.413-1.409v-5.082C47.658,116.317,48.294,115.685,49.07,115.685"/>
			<path fill="#424242" d="M49.07,124.955h16.661c0.777,0,1.412,0.635,1.412,1.41v5.082c0,0.776-0.635,1.411-1.412,1.411H49.07
				c-0.778,0-1.413-0.635-1.413-1.411v-5.082C47.658,125.59,48.292,124.955,49.07,124.955"/>
			<path fill="#424242" d="M49.07,134.228h6.917c0.775,0,1.413,0.635,1.413,1.412v5.082c0,0.776-0.638,1.409-1.413,1.409H49.07
				c-0.778,0-1.413-0.633-1.413-1.409v-5.082C47.658,134.862,48.292,134.228,49.07,134.228"/>
			<path fill="#424242" d="M62.818,106.411h4.994c0.764,0,1.387,0.624,1.387,1.386v5.13c0,0.764-0.623,1.389-1.387,1.389h-4.994
				c-0.762,0-1.387-0.625-1.387-1.389v-5.13C61.431,107.035,62.056,106.411,62.818,106.411"/>
			<path fill="#424242" d="M72.406,106.411h4.993c0.762,0,1.388,0.624,1.388,1.386v5.13c0,0.764-0.626,1.389-1.388,1.389h-4.993
				c-0.762,0-1.388-0.625-1.388-1.389v-5.13C71.018,107.035,71.644,106.411,72.406,106.411"/>
			<path fill="#424242" d="M81.992,106.411h4.993c0.764,0,1.388,0.624,1.388,1.386v5.13c0,0.764-0.624,1.389-1.388,1.389h-4.993
				c-0.763,0-1.388-0.625-1.388-1.389v-5.13C80.604,107.035,81.229,106.411,81.992,106.411"/>
			<path fill="#424242" d="M91.578,106.411h4.993c0.763,0,1.388,0.624,1.388,1.386v5.13c0,0.764-0.625,1.389-1.388,1.389h-4.993
				c-0.764,0-1.388-0.625-1.388-1.389v-5.13C90.191,107.035,90.815,106.411,91.578,106.411"/>
			<path fill="#424242" d="M101.164,106.411h4.993c0.764,0,1.388,0.624,1.388,1.386v5.13c0,0.764-0.624,1.389-1.388,1.389h-4.993
				c-0.764,0-1.387-0.625-1.387-1.389v-5.13C99.777,107.035,100.401,106.411,101.164,106.411"/>
			<path fill="#424242" d="M110.752,106.411h4.992c0.764,0,1.389,0.624,1.389,1.386v5.13c0,0.764-0.625,1.389-1.389,1.389h-4.992
				c-0.766,0-1.389-0.625-1.389-1.389v-5.13C109.362,107.035,109.986,106.411,110.752,106.411"/>
			<path fill="#424242" d="M120.337,106.411h4.994c0.763,0,1.386,0.624,1.386,1.386v5.132c0,0.764-0.623,1.387-1.386,1.387
				l-4.994,0.002c-0.763,0-1.388-0.625-1.388-1.389v-5.131C118.949,107.035,119.574,106.411,120.337,106.411"/>
			<path fill="#424242" d="M129.923,106.411h4.992c0.765,0,1.389,0.624,1.389,1.386v5.132c0,0.764-0.624,1.387-1.389,1.387h-4.992
				c-0.765,0-1.389-0.623-1.389-1.387v-5.132C128.534,107.035,129.158,106.411,129.923,106.411"/>
			<path fill="#424242" d="M139.509,106.411h4.994c0.761,0,1.387,0.624,1.387,1.386v5.132c0,0.764-0.626,1.387-1.387,1.387h-4.994
				c-0.763,0-1.387-0.623-1.387-1.387v-5.132C138.122,107.035,138.746,106.411,139.509,106.411"/>
			<path fill="#424242" d="M149.095,106.411h4.994c0.761,0,1.386,0.624,1.386,1.386v5.132c0,0.764-0.625,1.387-1.386,1.387h-4.994
				c-0.763,0-1.386-0.623-1.386-1.387v-5.132C147.71,107.035,148.333,106.411,149.095,106.411"/>
			<path fill="#424242" d="M158.68,106.411h4.994c0.763,0,1.388,0.624,1.388,1.386v5.132c0,0.764-0.625,1.387-1.388,1.387h-4.994
				c-0.759,0-1.386-0.623-1.386-1.387v-5.132C157.294,107.035,157.921,106.411,158.68,106.411"/>
			<path fill="#424242" d="M168.266,106.411h4.995c0.763,0,1.388,0.624,1.388,1.386v5.132c0,0.764-0.625,1.387-1.388,1.387h-4.995
				c-0.762,0-1.386-0.623-1.386-1.387v-5.132C166.88,107.035,167.505,106.411,168.266,106.411"/>
			<path fill="#424242" d="M65.486,115.685h4.993c0.764,0,1.388,0.621,1.388,1.387v5.129c0,0.763-0.624,1.387-1.388,1.387h-4.993
				c-0.763,0-1.387-0.624-1.387-1.387v-5.129C64.099,116.306,64.723,115.685,65.486,115.685"/>
			<path fill="#424242" d="M75.072,115.685h4.994c0.762,0,1.386,0.621,1.386,1.387v5.129c0,0.763-0.625,1.387-1.386,1.387h-4.994
				c-0.764,0-1.387-0.624-1.387-1.387v-5.129C73.685,116.306,74.308,115.685,75.072,115.685"/>
			<path fill="#424242" d="M84.659,115.685h4.993c0.763,0,1.388,0.621,1.388,1.387v5.129c0,0.763-0.625,1.387-1.388,1.387h-4.993
				c-0.763,0-1.388-0.624-1.388-1.387v-5.129C83.271,116.306,83.896,115.685,84.659,115.685"/>
			<path fill="#424242" d="M94.244,115.685h4.994c0.763,0,1.387,0.621,1.387,1.387v5.129c0,0.763-0.624,1.387-1.387,1.387h-4.994
				c-0.762,0-1.387-0.624-1.387-1.387v-5.129C92.857,116.306,93.483,115.685,94.244,115.685"/>
			<path fill="#424242" d="M103.832,115.685h4.993c0.763,0,1.388,0.621,1.388,1.387v5.129c0,0.763-0.625,1.387-1.388,1.387h-4.993
				c-0.763,0-1.387-0.624-1.387-1.387v-5.129C102.445,116.306,103.069,115.685,103.832,115.685"/>
			<path fill="#424242" d="M113.417,115.685h4.994c0.765,0,1.386,0.621,1.386,1.387v5.129c0,0.763-0.622,1.387-1.386,1.387h-4.994
				c-0.763,0-1.386-0.624-1.386-1.387v-5.129C112.031,116.306,112.654,115.685,113.417,115.685"/>
			<path fill="#424242" d="M123.004,115.685h4.992c0.764,0,1.388,0.621,1.388,1.386v5.13c0,0.763-0.624,1.387-1.388,1.387h-4.992
				c-0.764,0-1.388-0.624-1.388-1.387v-5.129C121.616,116.306,122.24,115.685,123.004,115.685"/>
			<path fill="#424242" d="M132.59,115.685h4.992c0.763,0,1.388,0.621,1.388,1.386v5.13c0,0.763-0.625,1.387-1.388,1.387h-4.992
				c-0.764,0-1.389-0.624-1.389-1.387v-5.13C131.201,116.306,131.826,115.685,132.59,115.685"/>
			<path fill="#424242" d="M142.176,115.685h4.993c0.763,0,1.387,0.621,1.387,1.386v5.13c0,0.763-0.624,1.387-1.387,1.387h-4.993
				c-0.763,0-1.389-0.624-1.389-1.387v-5.13C140.788,116.306,141.413,115.685,142.176,115.685"/>
			<path fill="#424242" d="M151.761,115.685h4.994c0.765,0,1.388,0.621,1.388,1.386v5.13c0,0.763-0.624,1.387-1.388,1.387h-4.994
				c-0.761,0-1.387-0.624-1.387-1.387v-5.13C150.374,116.306,151,115.685,151.761,115.685"/>
			<path fill="#424242" d="M161.348,115.685h4.991c0.767,0,1.392,0.621,1.392,1.386v5.13c0,0.763-0.625,1.387-1.392,1.387h-4.991
				c-0.763,0-1.388-0.624-1.388-1.387v-5.13C159.96,116.306,160.586,115.685,161.348,115.685"/>
			<path fill="#424242" d="M70.506,124.955h4.992c0.762,0,1.388,0.624,1.388,1.39v5.129c0,0.762-0.625,1.387-1.388,1.387h-4.992
				c-0.764,0-1.388-0.625-1.388-1.387v-5.129C69.118,125.58,69.742,124.955,70.506,124.955"/>
			<path fill="#424242" d="M80.091,124.955h4.992c0.764,0,1.389,0.624,1.389,1.39v5.129c0,0.762-0.625,1.387-1.389,1.387h-4.992
				c-0.764,0-1.388-0.625-1.388-1.387v-5.129C78.704,125.58,79.327,124.955,80.091,124.955"/>
			<path fill="#424242" d="M89.677,124.955h4.993c0.765,0,1.388,0.624,1.388,1.39v5.129c0,0.762-0.623,1.387-1.388,1.387h-4.993
				c-0.762,0-1.388-0.625-1.388-1.387v-5.129C88.29,125.58,88.916,124.955,89.677,124.955"/>
			<path fill="#424242" d="M99.263,124.955h4.994c0.763,0,1.388,0.624,1.388,1.39v5.129c0,0.762-0.625,1.387-1.388,1.387h-4.994
				c-0.762,0-1.386-0.625-1.386-1.387v-5.129C97.877,125.58,98.501,124.955,99.263,124.955"/>
			<path fill="#424242" d="M108.85,124.955h4.994c0.763,0,1.388,0.624,1.388,1.39v5.129c0,0.762-0.625,1.387-1.388,1.387h-4.994
				c-0.764,0-1.389-0.625-1.389-1.387v-5.129C107.461,125.58,108.086,124.955,108.85,124.955"/>
			<path fill="#424242" d="M118.436,124.955h4.993c0.765,0,1.388,0.624,1.388,1.388v5.129c0,0.762-0.623,1.387-1.388,1.387h-4.993
				c-0.762,0-1.386-0.625-1.386-1.387v-5.129C117.049,125.58,117.673,124.955,118.436,124.955"/>
			<path fill="#424242" d="M128.023,124.955h4.993c0.764,0,1.388,0.625,1.388,1.39v5.127c0,0.762-0.624,1.387-1.388,1.387h-4.993
				c-0.763,0-1.387-0.625-1.387-1.387v-5.127C126.635,125.579,127.259,124.955,128.023,124.955"/>
			<path fill="#424242" d="M137.607,124.955h4.995c0.761,0,1.386,0.625,1.386,1.39v5.127c0,0.762-0.625,1.387-1.386,1.387h-4.995
				c-0.762,0-1.386-0.625-1.386-1.387v-5.127C136.221,125.579,136.845,124.955,137.607,124.955"/>
			<path fill="#424242" d="M147.195,124.955h4.992c0.763,0,1.389,0.625,1.389,1.39v5.127c0,0.762-0.625,1.387-1.389,1.387h-4.992
				c-0.764,0-1.388-0.625-1.388-1.387v-5.127C145.808,125.579,146.431,124.955,147.195,124.955"/>
			<path fill="#424242" d="M156.781,124.955h4.994c0.763,0,1.387,0.625,1.387,1.39v5.127c0,0.762-0.624,1.387-1.387,1.387h-4.994
				c-0.762,0-1.387-0.625-1.387-1.387v-5.127C155.394,125.579,156.019,124.955,156.781,124.955"/>
			<path fill="#424242" d="M166.393,124.955h9.027c0.775,0,1.412,0.636,1.412,1.41v5.083c0,0.775-0.636,1.41-1.412,1.41h-9.027
				c-0.779,0-1.414-0.635-1.414-1.41v-5.083C164.979,125.59,165.614,124.955,166.393,124.955"/>
			<path fill="#424242" d="M60.764,134.228h4.991c0.764,0,1.389,0.623,1.389,1.39v5.129c0,0.763-0.625,1.385-1.389,1.385h-4.991
				c-0.764,0-1.389-0.622-1.389-1.385v-5.129C59.375,134.851,60,134.228,60.764,134.228"/>
			<path fill="#424242" d="M70.349,134.228h4.993c0.763,0,1.388,0.623,1.388,1.39v5.129c0,0.763-0.625,1.385-1.388,1.385h-4.993
				c-0.762,0-1.388-0.622-1.388-1.385v-5.129C68.961,134.851,69.587,134.228,70.349,134.228"/>
			<path fill="#424242" d="M79.935,134.228h4.993c0.764,0,1.389,0.623,1.389,1.39v5.129c0,0.763-0.625,1.385-1.389,1.385h-4.993
				c-0.763,0-1.388-0.622-1.388-1.385v-5.129C78.548,134.851,79.173,134.228,79.935,134.228"/>
			<path fill="#424242" d="M89.521,134.228h43.253c0.763,0,1.389,0.623,1.389,1.39v5.129c0,0.763-0.626,1.385-1.389,1.385H89.521
				c-0.761,0-1.387-0.622-1.387-1.385v-5.129C88.133,134.851,88.759,134.228,89.521,134.228"/>
			<path fill="#424242" d="M137.454,134.228h4.992c0.761,0,1.389,0.623,1.389,1.389v5.129c0,0.764-0.628,1.385-1.389,1.385h-4.992
				c-0.765,0-1.39-0.621-1.39-1.385v-5.129C136.064,134.851,136.689,134.228,137.454,134.228"/>
			<path fill="#424242" d="M147.038,134.228h4.996c0.761,0,1.386,0.623,1.386,1.389v5.129c0,0.764-0.625,1.385-1.386,1.385h-4.996
				c-0.762,0-1.387-0.621-1.387-1.385v-5.129C145.651,134.851,146.276,134.228,147.038,134.228"/>
			<path fill="#424242" d="M156.649,134.228h9.028c0.775,0,1.411,0.634,1.411,1.412v5.082c0,0.776-0.635,1.408-1.411,1.408h-9.028
				c-0.776,0-1.411-0.632-1.411-1.408v-5.082C155.238,134.861,155.873,134.228,156.649,134.228"/>
			<path fill="#424242" d="M170.761,134.228h4.75c0.725,0,1.32,0.593,1.32,1.318v5.266c0,0.725-0.596,1.317-1.32,1.317h-4.75
				c-0.726,0-1.322-0.593-1.322-1.317v-5.266C169.44,134.82,170.035,134.228,170.761,134.228"/>
			<path fill="#D3D3D3" d="M98.726,148.873l44.042-0.001c0.671,0,1.22,0.548,1.22,1.219v21.178c0,0.672-0.549,1.222-1.22,1.222
				H98.726c-0.67,0-1.221-0.55-1.221-1.222v-21.176C97.505,149.421,98.055,148.873,98.726,148.873"/>
			<path fill="#D3D3D3" d="M97.758,174.074h21.904c0.14,0,0.253,0.112,0.253,0.252v4.399c0,0.138-0.113,0.252-0.253,0.252H97.758
				c-0.139,0-0.253-0.114-0.253-0.252v-4.399C97.505,174.187,97.619,174.074,97.758,174.074"/>
			<path fill="#D3D3D3" d="M121.831,174.074h21.904c0.14,0,0.253,0.112,0.253,0.252v4.397c0,0.14-0.113,0.254-0.253,0.254h-21.904
				c-0.141,0-0.253-0.114-0.253-0.252v-4.399C121.578,174.187,121.691,174.074,121.831,174.074"/>
		</g>
		<path fill="#424242" d="M26.596,18.041h189.307c4.552,0,5.936,2.465,4.071,5.864l-15.839,48.649H38.25L24.138,26.861
			C20.968,21.051,21.582,18.041,26.596,18.041"/>
		<polygon fill="#00B5BE" points="210.283,26.826 198.764,65.758 43.752,65.758 32.114,26.826 		"/>
		<path fill="#D3D3D3" d="M50.479,69.205h6.599c0.418,0,0.761,0.401,0.761,0.887v9.042c0,0.487-0.343,0.885-0.761,0.885h-6.599
			c-0.419,0-0.763-0.398-0.763-0.885v-9.042C49.715,69.607,50.06,69.205,50.479,69.205"/>
		<path fill="#D3D3D3" d="M185.742,69.205h6.597c0.419,0,0.763,0.401,0.763,0.887v9.042c0,0.487-0.344,0.885-0.763,0.885h-6.597
			c-0.42,0-0.763-0.398-0.763-0.885v-9.042C184.979,69.607,185.322,69.205,185.742,69.205"/>
	</g>
	<g id="arduino">
		<rect id="connector0pin" x="545.53" y="29.896" width="2.773" height="2.773"/>
		<rect id="connector1pin" x="552.707" y="29.896" width="2.771" height="2.773"/>
		<rect id="connector2pin" x="559.885" y="29.896" width="2.771" height="2.773"/>
		<rect id="connector3pin" x="567.062" y="29.896" width="2.773" height="2.773"/>
		<rect id="connector4pin" x="574.24" y="29.896" width="2.773" height="2.773"/>
		<rect id="connector5pin" x="581.417" y="29.896" width="2.771" height="2.773"/>
		<rect id="connector6pin" x="588.596" y="29.896" width="2.772" height="2.773"/>
		<rect id="connector7pin" x="595.774" y="29.896" width="2.772" height="2.773"/>
		<rect id="connector8pin" x="610.32" y="29.896" width="2.771" height="2.773"/>
		<rect id="connector9pin" x="617.498" y="29.896" width="2.771" height="2.773"/>
		<rect id="connector10pin" x="624.674" y="29.896" width="2.771" height="2.773"/>
		<rect id="connector11pin" x="631.852" y="29.896" width="2.772" height="2.773"/>
		<rect id="connector12pin" x="639.029" y="29.896" width="2.773" height="2.773"/>
		<rect id="connector13pin" x="646.207" y="29.896" width="2.771" height="2.773"/>
		<rect id="connector14pin" x="653.384" y="29.896" width="2.771" height="2.773"/>
		<rect id="connector15pin" x="660.562" y="29.896" width="2.773" height="2.773"/>
		<rect id="connector16pin" x="574.324" y="166.673" width="2.774" height="2.771"/>
		<rect id="connector17pin" x="581.524" y="166.673" width="2.774" height="2.771"/>
		<rect id="connector18pin" x="588.722" y="166.673" width="2.771" height="2.771"/>
		<rect id="connector19pin" x="595.9" y="166.673" width="2.771" height="2.771"/>
		<rect id="connector20pin" x="603.078" y="166.673" width="2.773" height="2.771"/>
		<rect id="connector21pin" x="610.253" y="166.673" width="2.773" height="2.771"/>
		<rect id="connector22pin" x="624.717" y="166.673" width="2.771" height="2.771"/>
		<rect id="connector23pin" x="631.894" y="166.673" width="2.773" height="2.771"/>
		<rect id="connector24pin" x="639.072" y="166.673" width="2.772" height="2.771"/>
		<rect id="connector25pin" x="646.25" y="166.673" width="2.771" height="2.771"/>
		<rect id="connector26pin" x="653.426" y="166.673" width="2.771" height="2.771"/>
		<rect id="connector27pin" x="660.604" y="166.673" width="2.771" height="2.771"/>
		<g id="breadboardbreadboard">
			<g>
				<g>
					<path fill="#0F7391" d="M668.13,61.704V29.48l-3.986-3.694H484.856v148.031h183.277v-5.032l6.923-7.136V68.293L668.13,61.704z
						 M527.653,36.656c-2.523,0-4.574-2.049-4.574-4.574s2.051-4.574,4.574-4.574c2.524,0,4.573,2.049,4.573,4.574
						S530.178,36.656,527.653,36.656z M668.383,71.605c1.62,0,2.937,1.317,2.937,2.938c0,1.623-1.314,2.936-2.937,2.936
						c-1.623,0-2.938-1.313-2.938-2.936C665.445,72.923,666.76,71.605,668.383,71.605z M668.885,156.533
						c-2.363,0-4.278-1.916-4.278-4.274c0-2.367,1.915-4.281,4.278-4.281c2.364,0,4.274,1.914,4.274,4.281
						C673.164,154.617,671.25,156.533,668.885,156.533z"/>
				</g>
			</g>
			<path fill="#02809E" d="M563.253,94.56c0-1.004-0.736-1.83-1.697-1.983v-0.029h-6.859c-1.111,0-2.015,0.901-2.015,2.015
				c0,1.111,0.901,2.015,2.015,2.015h6.859v-0.032C562.515,96.392,563.253,95.565,563.253,94.56z"/>
			<path fill="#02809E" d="M563.253,88.507c0-1.003-0.736-1.829-1.697-1.982v-0.031h-6.859c-1.111,0-2.015,0.903-2.015,2.014
				c0,1.114,0.901,2.015,2.015,2.015h6.859v-0.03C562.515,90.339,563.253,89.511,563.253,88.507z"/>
			<path fill="#02809E" d="M563.253,82.455c0-1.005-0.736-1.831-1.697-1.984V80.44h-6.859c-1.111,0-2.015,0.903-2.015,2.015
				s0.901,2.014,2.015,2.014h6.859v-0.031C562.515,84.285,563.253,83.459,563.253,82.455z"/>
			<path fill="#02809E" d="M590.71,89.666c0-1.005-0.736-1.83-1.699-1.982v-0.031h-6.857c-1.111,0-2.016,0.9-2.016,2.013
				c0,1.113,0.902,2.015,2.016,2.015h6.857v-0.031C589.973,91.497,590.71,90.671,590.71,89.666z"/>
			<path fill="#02809E" d="M607.466,100.208c0-3.033-2.229-5.529-5.133-5.988v-0.095h-17.522c-3.358,0-6.082,2.724-6.082,6.083
				s2.724,6.083,6.082,6.083h17.522v-0.094C605.238,105.736,607.466,103.24,607.466,100.208z"/>
			<path fill="#02809E" d="M605.311,89.666c0-1.005-0.735-1.83-1.696-1.982v-0.031h-6.857c-1.112,0-2.016,0.9-2.016,2.013
				c0,1.113,0.9,2.015,2.016,2.015h6.857v-0.031C604.574,91.497,605.311,90.671,605.311,89.666z"/>
			<path fill="#02809E" d="M622.768,89.666c0-1.005-0.735-1.83-1.696-1.982v-0.031h-6.857c-1.113,0-2.018,0.9-2.018,2.013
				c0,1.113,0.901,2.015,2.018,2.015h6.857v-0.031C622.031,91.497,622.768,90.671,622.768,89.666z"/>
			<path fill="#02809E" d="M622.768,97.405c0-1.006-0.735-1.831-1.696-1.983v-0.03h-6.857c-1.113,0-2.018,0.9-2.018,2.014
				s0.901,2.014,2.018,2.014h6.857v-0.031C622.031,99.236,622.768,98.41,622.768,97.405z"/>
			<path fill="#02809E" d="M622.768,105.144c0-1.006-0.735-1.832-1.696-1.981v-0.032h-6.857c-1.113,0-2.018,0.9-2.018,2.016
				s0.901,2.017,2.018,2.017h6.857v-0.035C622.031,106.974,622.768,106.147,622.768,105.144z"/>
			<path fill="#02809E" d="M637.251,93.103c0-1.004-0.734-1.832-1.696-1.982v-0.031h-6.858c-1.111,0-2.015,0.901-2.015,2.014
				c0,1.113,0.901,2.015,2.015,2.015h6.858v-0.031C636.516,94.933,637.251,94.106,637.251,93.103z"/>
			<path fill="#02809E" d="M637.251,105.58c0-1.004-0.734-1.83-1.696-1.981v-0.029h-6.858c-1.111,0-2.015,0.9-2.015,2.012
				c0,1.113,0.901,2.018,2.015,2.018h6.858v-0.031C636.516,107.412,637.251,106.583,637.251,105.58z"/>
			<path fill="#02809E" d="M641.025,93.103c0-1.004,0.735-1.832,1.697-1.982v-0.031h6.857c1.11,0,2.014,0.901,2.014,2.014
				c0,1.113-0.9,2.015-2.014,2.015h-6.857v-0.031C641.761,94.933,641.025,94.106,641.025,93.103z"/>
			<path fill="#02809E" d="M641.025,105.58c0-1.004,0.735-1.83,1.697-1.981v-0.029h6.857c1.11,0,2.014,0.9,2.014,2.012
				c0,1.113-0.9,2.018-2.014,2.018h-6.857v-0.031C641.761,107.412,641.025,106.583,641.025,105.58z"/>
			<path fill="#02809E" d="M563.253,106.665c0-1.004-0.736-1.828-1.697-1.98v-0.03h-6.859c-1.111,0-2.015,0.899-2.015,2.014
				c0,1.115,0.901,2.019,2.015,2.019h6.859v-0.033C562.515,108.497,563.253,107.673,563.253,106.665z"/>
			<path fill="#02809E" d="M563.253,52.187c0-1.004-0.736-1.829-1.697-1.981v-0.033h-6.859c-1.111,0-2.015,0.901-2.015,2.014
				s0.901,2.016,2.015,2.016h6.859v-0.034C562.515,54.017,563.253,53.193,563.253,52.187z"/>
			<path fill="#02809E" d="M529.778,47.687c0-1.004-0.734-1.829-1.695-1.981v-0.032h-6.859c-1.111,0-2.016,0.901-2.016,2.013
				s0.9,2.017,2.016,2.017h6.859V49.67C529.042,49.518,529.778,48.694,529.778,47.687z"/>
			<path fill="#02809E" d="M542.557,47.687c0-1.004-0.736-1.829-1.698-1.981v-0.032h-6.856c-1.112,0-2.018,0.901-2.018,2.013
				s0.902,2.017,2.018,2.017h6.856V49.67C541.819,49.518,542.557,48.694,542.557,47.687z"/>
			<path fill="#02809E" d="M563.253,64.294c0-1.004-0.736-1.829-1.697-1.982v-0.031h-6.859c-1.111,0-2.015,0.901-2.015,2.014
				c0,1.113,0.901,2.015,2.015,2.015h6.859v-0.031C562.515,66.124,563.253,65.299,563.253,64.294z"/>
			<path fill="#02809E" d="M539.262,126.456c0-1.004-0.734-1.83-1.697-1.98v-0.033h-6.857c-1.113,0-2.017,0.902-2.017,2.015
				c0,1.113,0.899,2.019,2.017,2.019h6.856v-0.031C538.525,128.287,539.262,127.46,539.262,126.456z"/>
			<path fill="#02809E" d="M539.262,118.179c0-1.006-0.734-1.83-1.697-1.981v-0.031h-6.857c-1.113,0-2.017,0.899-2.017,2.015
				s0.899,2.018,2.017,2.018h6.856v-0.031C538.525,120.009,539.262,119.183,539.262,118.179z"/>
			<path fill="#02809E" d="M522.075,95.422c1.008,0,1.832-0.737,1.982-1.698h0.034v-4.847c0-1.11-0.904-2.016-2.019-2.016
				c-1.109,0-2.015,0.904-2.015,2.016v4.847h0.03C520.247,94.685,521.071,95.422,522.075,95.422z"/>
			<path fill="#02809E" d="M529.459,95.422c1.006,0,1.832-0.737,1.98-1.698h0.032v-4.847c0-1.11-0.901-2.016-2.015-2.016
				c-1.111,0-2.018,0.904-2.018,2.016v4.847h0.031C527.631,94.685,528.458,95.422,529.459,95.422z"/>
			<path fill="#02809E" d="M536.845,95.422c1.005,0,1.831-0.737,1.979-1.698h0.032v-4.847c0-1.11-0.899-2.016-2.015-2.016
				c-1.111,0-2.018,0.904-2.018,2.016v4.847h0.032C535.017,94.685,535.842,95.422,536.845,95.422z"/>
			<path fill="#02809E" d="M544.23,95.422c1.005,0,1.832-0.737,1.983-1.698h0.029v-4.847c0-1.11-0.899-2.016-2.016-2.016
				c-1.111,0-2.014,0.904-2.014,2.016v4.847h0.029C542.401,94.685,543.227,95.422,544.23,95.422z"/>
			<path fill="#02809E" d="M629.968,72.983c0,1.005,0.736,1.832,1.699,1.984v0.029h6.857c1.111,0,2.016-0.9,2.016-2.013
				c0-1.111-0.901-2.014-2.016-2.014h-6.857V71C630.707,71.153,629.968,71.98,629.968,72.983z"/>
			<path fill="#02809E" d="M519.452,120.044c0-1.004-0.734-1.832-1.697-1.982v-0.032h-6.858c-1.114,0-2.017,0.901-2.017,2.018
				c0,1.109,0.9,2.015,2.017,2.015h6.858v-0.029C518.713,121.874,519.452,121.048,519.452,120.044z"/>
			<path fill="#02809E" d="M519.452,126.591c0-1.006-0.734-1.83-1.697-1.984v-0.028h-6.858c-1.114,0-2.017,0.897-2.017,2.017
				c0,1.106,0.9,2.014,2.017,2.014h6.858v-0.029C518.713,128.417,519.452,127.595,519.452,126.591z"/>
			<path fill="#02809E" d="M519.452,133.136c0-1.005-0.734-1.83-1.697-1.981v-0.031h-6.858c-1.114,0-2.017,0.901-2.017,2.017
				c0,1.113,0.9,2.016,2.017,2.016h6.858v-0.031C518.713,134.968,519.452,134.142,519.452,133.136z"/>
			<rect x="492.766" y="116.585" fill="#02809E" width="20.309" height="19.303"/>
			<rect x="489.241" y="118.935" fill="#02809E" width="5.037" height="14.603"/>
			<circle fill="#02809E" cx="537.7" cy="31.864" r="1.762"/>
			<g>
				<g>
					<path fill="#02809E" d="M537.7,27.419c-2.457,0-4.447,1.991-4.447,4.446c0,2.458,1.99,4.447,4.447,4.447
						s4.448-1.99,4.448-4.447C542.148,29.409,540.157,27.419,537.7,27.419z M537.7,35.85c-2.201,0-3.984-1.785-3.984-3.986
						c0-2.201,1.785-3.986,3.984-3.986c2.203,0,3.985,1.785,3.985,3.986C541.686,34.066,539.903,35.85,537.7,35.85z"/>
				</g>
			</g>
			<circle fill="#02809E" cx="491.845" cy="167.184" r="1.763"/>
			<g>
				<g>
					<path fill="#02809E" d="M491.846,162.738c-2.457,0-4.45,1.991-4.45,4.446c0,2.457,1.993,4.447,4.45,4.447
						c2.454,0,4.447-1.99,4.447-4.447C496.293,164.729,494.302,162.738,491.846,162.738z M491.846,171.169
						c-2.204,0-3.986-1.783-3.986-3.984s1.784-3.985,3.986-3.985c2.201,0,3.984,1.784,3.984,3.985S494.047,171.169,491.846,171.169z
						"/>
				</g>
			</g>
			<circle fill="#02809E" cx="659.906" cy="57.343" r="1.762"/>
			<g>
				<g>
					<path fill="#02809E" d="M659.908,52.894c-2.457,0-4.449,1.993-4.449,4.449c0,2.455,1.992,4.444,4.449,4.444
						c2.453,0,4.447-1.99,4.447-4.444C664.355,54.887,662.363,52.894,659.908,52.894z M659.908,61.327
						c-2.205,0-3.984-1.785-3.984-3.984c0-2.204,1.785-3.987,3.984-3.987s3.981,1.784,3.981,3.987
						C663.891,59.543,662.108,61.327,659.908,61.327z"/>
				</g>
			</g>
			<circle fill="#02809E" cx="493.186" cy="50.628" r="4.28"/>
			<circle fill="#02809E" cx="493.186" cy="85.369" r="4.28"/>
			<rect x="517.689" y="59.24" fill="#02809E" width="28.531" height="16.113"/>
			<rect x="524.263" y="135.869" fill="#02809E" width="17.538" height="7.974"/>
			<rect x="525.163" y="103.115" fill="#02809E" width="16.162" height="9.348"/>
			<rect x="564.095" y="118.308" fill="#02809E" width="96.841" height="21.482"/>
			<circle fill="#02809E" cx="515.465" cy="151.705" r="5.665"/>
			<circle fill="#02809E" cx="508.081" cy="165.468" r="5.664"/>
			<path fill="#02809E" d="M546.456,163.347c0.432-1.115,0.674-2.32,0.674-3.586c0-5.49-4.452-9.94-9.941-9.94
				c-5.488,0-9.943,4.45-9.943,9.94c0,2.574,0.986,4.913,2.594,6.678L546.456,163.347z"/>
			<path fill="#02809E" d="M569.666,163.347c0.432-1.115,0.674-2.32,0.674-3.586c0-5.49-4.452-9.94-9.941-9.94
				c-5.492,0-9.94,4.45-9.94,9.94c0,2.574,0.983,4.913,2.592,6.678L569.666,163.347z"/>
			<path fill="#8D8C8C" d="M563.253,70.347c0-1.004-0.736-1.829-1.697-1.982v-0.031h-6.859c-1.111,0-2.015,0.901-2.015,2.013
				s0.901,2.015,2.015,2.015h6.859V72.33C562.515,72.178,563.253,71.353,563.253,70.347z"/>
			<rect x="556.205" y="68.711" fill="#FBBE0E" width="3.647" height="3.21"/>
			<path fill="#8D8C8C" d="M563.253,58.241c0-1.004-0.736-1.829-1.697-1.982v-0.031h-6.859c-1.111,0-2.015,0.901-2.015,2.014
				c0,1.113,0.901,2.015,2.015,2.015h6.859v-0.032C562.515,60.072,563.253,59.246,563.253,58.241z"/>
			<rect x="556.205" y="56.605" fill="#FBBE0E" width="3.647" height="3.21"/>
			<path fill="#8D8C8C" d="M653.404,72.983c0-1.004-0.736-1.83-1.697-1.981V70.97h-6.858c-1.112,0-2.015,0.901-2.015,2.014
				c0,1.112,0.898,2.015,2.015,2.015h6.858v-0.032C652.664,74.812,653.404,73.986,653.404,72.983z"/>
			<rect x="646.355" y="71.347" fill="#FBBE0E" width="3.648" height="3.21"/>
			<path fill="#8D8C8C" d="M563.253,76.401c0-1.004-0.736-1.83-1.697-1.983v-0.031h-6.859c-1.111,0-2.015,0.903-2.015,2.014
				c0,1.113,0.901,2.015,2.015,2.015h6.859v-0.032C562.515,78.232,563.253,77.406,563.253,76.401z"/>
			<rect x="556.205" y="74.764" fill="#FBBE0E" width="3.647" height="3.21"/>
			<rect x="631.145" y="90.782" fill="#8D8C8C" width="16.615" height="16.99"/>
			<path fill="#404040" d="M647.384,93.172c0,0.835-0.678,1.513-1.516,1.513c-0.834,0-1.512-0.674-1.512-1.513
				c0-0.832,0.676-1.513,1.512-1.513C646.707,91.662,647.384,92.341,647.384,93.172z"/>
			<path fill="#404040" d="M634.669,93.172c0,0.835-0.678,1.513-1.514,1.513s-1.513-0.674-1.513-1.513
				c0-0.832,0.675-1.513,1.513-1.513C633.994,91.662,634.669,92.341,634.669,93.172z"/>
			<circle fill="#404040" cx="633.158" cy="105.887" r="1.511"/>
			<circle fill="#404040" cx="645.873" cy="105.887" r="1.511"/>
			<circle fill="#404040" cx="639.138" cy="99.278" r="4.909"/>
			<polygon fill="#404040" points="671.255,85.566 667.322,85.566 663.982,85.566 660.049,85.566 658.539,87.075 658.539,91.009 
				660.049,92.519 663.982,92.519 667.322,92.519 671.255,92.519 672.767,91.009 672.767,87.075 			"/>
			<polygon fill="#404040" points="671.255,92.747 667.322,92.747 663.982,92.747 660.049,92.747 658.539,94.257 658.539,98.188 
				660.049,99.701 663.982,99.701 667.322,99.701 671.255,99.701 672.767,98.188 672.767,94.257 			"/>
			<polygon fill="#404040" points="671.255,99.927 667.322,99.927 663.982,99.927 660.049,99.927 658.539,101.437 658.539,105.371 
				660.049,106.88 663.982,106.88 667.322,106.88 671.255,106.88 672.767,105.371 672.767,101.437 			"/>
			<polygon fill="#404040" points="671.255,85.566 667.322,85.566 663.982,85.566 660.049,85.566 658.539,87.075 658.539,91.009 
				660.049,92.519 663.982,92.519 667.322,92.519 671.255,92.519 672.767,91.009 672.767,87.075 			"/>
			<polygon fill="#404040" points="671.255,92.747 667.322,92.747 663.982,92.747 660.049,92.747 658.539,94.257 658.539,98.188 
				660.049,99.701 663.982,99.701 667.322,99.701 671.255,99.701 672.767,98.188 672.767,94.257 			"/>
			<polygon fill="#404040" points="671.255,99.927 667.322,99.927 663.982,99.927 660.049,99.927 658.539,101.437 658.539,105.371 
				660.049,106.88 663.982,106.88 667.322,106.88 671.255,106.88 672.767,105.371 672.767,101.437 			"/>
			<rect x="660.947" y="102.121" fill="#8D8C8C" width="2.297" height="2.299"/>
			<rect x="668.146" y="102.121" fill="#8D8C8C" width="2.297" height="2.299"/>
			<rect x="660.947" y="94.922" fill="#8D8C8C" width="2.297" height="2.298"/>
			<rect x="668.146" y="94.922" fill="#8D8C8C" width="2.297" height="2.298"/>
			<rect x="660.947" y="87.723" fill="#8D8C8C" width="2.297" height="2.297"/>
			<rect x="668.146" y="87.723" fill="#8D8455" width="2.297" height="2.297"/>
			<polygon fill="#404040" points="498.493,92.595 494.559,92.595 498.493,92.595 494.559,92.595 493.047,94.104 493.047,98.039 
				494.559,99.549 498.493,99.549 494.559,99.549 498.493,99.549 500.002,98.039 500.002,94.104 			"/>
			<rect x="668.705" y="88.281" fill="#8C8663" width="1.183" height="1.182"/>
			<polygon fill="#B8AF82" points="668.146,87.723 668.705,88.281 669.885,88.281 670.445,87.723 			"/>
			<polygon fill="#80795B" points="669.885,89.463 669.885,88.281 670.445,87.723 670.445,90.021 			"/>
			<polygon fill="#5E5B43" points="668.705,89.463 669.885,89.463 670.445,90.021 668.146,90.021 			"/>
			<polygon fill="#9A916C" points="668.146,87.723 668.705,88.281 668.705,89.463 668.146,90.021 			"/>
			<rect x="661.505" y="88.281" fill="#8C8663" width="1.182" height="1.182"/>
			<polygon fill="#B8AF82" points="660.947,87.723 661.505,88.281 662.686,88.281 663.244,87.723 			"/>
			<polygon fill="#80795B" points="662.686,89.463 662.686,88.281 663.244,87.723 663.244,90.021 			"/>
			<polygon fill="#5E5B43" points="661.505,89.463 662.686,89.463 663.244,90.021 660.947,90.021 			"/>
			<polygon fill="#9A916C" points="660.947,87.723 661.505,88.281 661.505,89.463 660.947,90.021 			"/>
			<rect x="668.705" y="95.479" fill="#8C8663" width="1.183" height="1.182"/>
			<polygon fill="#B8AF82" points="668.146,94.922 668.705,95.479 669.885,95.479 670.445,94.922 			"/>
			<polygon fill="#80795B" points="669.885,96.661 669.885,95.479 670.445,94.922 670.445,97.22 			"/>
			<polygon fill="#5E5B43" points="668.705,96.661 669.885,96.661 670.445,97.22 668.146,97.22 			"/>
			<polygon fill="#9A916C" points="668.146,94.922 668.705,95.479 668.705,96.661 668.146,97.22 			"/>
			<rect x="661.505" y="95.479" fill="#8C8663" width="1.182" height="1.182"/>
			<polygon fill="#B8AF82" points="660.947,94.922 661.505,95.479 662.686,95.479 663.244,94.922 			"/>
			<polygon fill="#80795B" points="662.686,96.661 662.686,95.479 663.244,94.922 663.244,97.22 			"/>
			<polygon fill="#5E5B43" points="661.505,96.661 662.686,96.661 663.244,97.22 660.947,97.22 			"/>
			<polygon fill="#9A916C" points="660.947,94.922 661.505,95.479 661.505,96.661 660.947,97.22 			"/>
			<rect x="668.705" y="102.679" fill="#8C8663" width="1.183" height="1.183"/>
			<polygon fill="#B8AF82" points="668.146,102.121 668.705,102.679 669.885,102.679 670.445,102.121 			"/>
			<polygon fill="#80795B" points="669.885,103.861 669.885,102.679 670.445,102.121 670.445,104.419 			"/>
			<polygon fill="#5E5B43" points="668.705,103.861 669.885,103.861 670.445,104.419 668.146,104.419 			"/>
			<polygon fill="#9A916C" points="668.146,102.121 668.705,102.679 668.705,103.861 668.146,104.419 			"/>
			<rect x="661.505" y="102.679" fill="#8C8663" width="1.182" height="1.183"/>
			<polygon fill="#B8AF82" points="660.947,102.121 661.505,102.679 662.686,102.679 663.244,102.121 			"/>
			<polygon fill="#80795B" points="662.686,103.861 662.686,102.679 663.244,102.121 663.244,104.419 			"/>
			<polygon fill="#5E5B43" points="661.505,103.861 662.686,103.861 663.244,104.419 660.947,104.419 			"/>
			<polygon fill="#9A916C" points="660.947,102.121 661.505,102.679 661.505,103.861 660.947,104.419 			"/>
			<rect x="495.935" y="95.479" fill="#8C8663" width="1.181" height="1.182"/>
			<polygon fill="#B8AF82" points="495.375,94.922 495.935,95.479 497.114,95.479 497.672,94.922 			"/>
			<polygon fill="#80795B" points="497.114,96.661 497.114,95.479 497.672,94.922 497.672,97.22 			"/>
			<polygon fill="#5E5B43" points="495.935,96.661 497.114,96.661 497.672,97.22 495.375,97.22 			"/>
			<polygon fill="#9A916C" points="495.375,94.922 495.935,95.479 495.935,96.661 495.375,97.22 			"/>
			<polygon fill="#404040" points="498.493,99.792 494.56,99.792 498.493,99.792 494.56,99.792 493.047,101.304 493.047,105.238 
				494.56,106.747 498.493,106.747 494.56,106.747 498.493,106.747 500.002,105.238 500.002,101.304 			"/>
			<rect x="495.935" y="102.679" fill="#8C8663" width="1.183" height="1.183"/>
			<polygon fill="#B8AF82" points="495.375,102.121 495.935,102.679 497.116,102.679 497.674,102.121 			"/>
			<polygon fill="#80795B" points="497.116,103.861 497.116,102.679 497.674,102.121 497.674,104.419 			"/>
			<polygon fill="#5E5B43" points="495.935,103.861 497.116,103.861 497.674,104.419 495.375,104.419 			"/>
			<polygon fill="#9A916C" points="495.375,102.121 495.935,102.679 495.935,103.861 495.375,104.419 			"/>
			<polygon fill="#404040" points="498.493,106.992 494.559,106.992 498.493,106.992 494.559,106.992 493.047,108.501 
				493.047,112.437 494.559,113.947 498.493,113.947 494.559,113.947 498.493,113.947 500.002,112.437 500.002,108.501 			"/>
			<rect x="495.935" y="109.876" fill="#8C8663" width="1.181" height="1.184"/>
			<polygon fill="#B8AF82" points="495.375,109.32 495.935,109.876 497.114,109.876 497.672,109.32 			"/>
			<polygon fill="#80795B" points="497.114,111.06 497.114,109.876 497.672,109.32 497.672,111.619 			"/>
			<polygon fill="#5E5B43" points="495.935,111.06 497.114,111.06 497.672,111.619 495.375,111.619 			"/>
			<polygon fill="#9A916C" points="495.375,109.32 495.935,109.876 495.935,111.06 495.375,111.619 			"/>
			<path d="M493.042,92.595v14.152h6.953V92.595H493.042z M497.674,104.419h-2.297v-2.299h2.297V104.419z M497.672,97.22h-2.297
				v-2.298h2.297V97.22z"/>
			<rect x="494.829" y="94.674" fill="#746A39" width="0.549" height="9.942"/>
			<rect x="495.674" y="97.22" fill="#4D4726" width="1.699" height="0.547"/>
			<rect x="495.674" y="101.574" fill="#4D4726" width="1.699" height="0.547"/>
			<polygon fill="#262626" points="493.042,92.595 493.042,97.767 494.657,97.767 494.657,94.517 498.392,94.517 498.392,97.767 
				499.997,97.767 499.997,92.595 			"/>
			<polygon fill="#262626" points="500.01,106.747 500.01,101.574 498.394,101.574 498.394,104.824 494.659,104.824 
				494.659,101.574 493.053,101.574 493.053,106.747 			"/>
			<polyline fill="none" stroke="#FFFFFF" points="501.036,94.688 502.104,94.688 502.104,102.169 501.036,102.169 			"/>
			<polyline fill="none" stroke="#FFFFFF" points="501.036,104.317 502.104,104.317 502.104,111.798 501.036,111.798 			"/>
			<rect x="462.892" y="51.173" fill="#676666" width="37.929" height="33.902"/>
			<rect x="500.821" y="51.173" fill="#676666" width="8.057" height="33.902"/>
			<rect x="477.995" y="141.257" width="37.262" height="23.83"/>
			<rect x="477.661" y="139.915" width="7.724" height="26.182"/>
			<rect x="543.327" y="27.694" fill="#404040" width="7.18" height="7.178"/>
			<rect x="545.53" y="29.896" width="2.773" height="2.773"/>
			<polygon fill="#2A2A29" points="544.506,28.873 545.53,29.896 548.303,29.896 549.325,28.873 			"/>
			<polygon fill="#474747" points="549.325,28.873 548.303,29.899 548.303,32.671 549.325,33.692 			"/>
			<polygon fill="#595959" points="549.325,33.692 548.303,32.671 545.528,32.671 544.506,33.692 			"/>
			<polygon fill="#373737" points="544.506,33.692 545.528,32.669 545.528,29.896 544.506,28.873 			"/>
			<rect x="550.504" y="27.694" fill="#404040" width="7.178" height="7.178"/>
			<rect x="552.707" y="29.896" width="2.771" height="2.773"/>
			<polygon fill="#2A2A29" points="551.684,28.873 552.707,29.896 555.48,29.896 556.503,28.873 			"/>
			<polygon fill="#474747" points="556.503,28.873 555.48,29.899 555.48,32.671 556.503,33.692 			"/>
			<polygon fill="#595959" points="556.501,33.692 555.48,32.671 552.707,32.671 551.684,33.692 			"/>
			<polygon fill="#373737" points="551.683,33.692 552.707,32.669 552.707,29.896 551.683,28.873 			"/>
			<rect x="557.682" y="27.694" fill="#404040" width="7.181" height="7.178"/>
			<rect x="559.885" y="29.896" width="2.771" height="2.773"/>
			<polygon fill="#2A2A29" points="558.861,28.873 559.884,29.896 562.658,29.896 563.681,28.873 			"/>
			<polygon fill="#474747" points="563.681,28.873 562.658,29.899 562.658,32.671 563.681,33.692 			"/>
			<polygon fill="#595959" points="563.68,33.692 562.658,32.671 559.883,32.671 558.861,33.692 			"/>
			<polygon fill="#373737" points="558.861,33.692 559.883,32.669 559.883,29.896 558.861,28.873 			"/>
			<rect x="564.861" y="27.694" fill="#404040" width="7.178" height="7.178"/>
			<rect x="567.062" y="29.896" width="2.773" height="2.773"/>
			<polygon fill="#2A2A29" points="566.039,28.873 567.062,29.896 569.835,29.896 570.859,28.873 			"/>
			<polygon fill="#474747" points="570.859,28.873 569.835,29.899 569.835,32.671 570.859,33.692 			"/>
			<polygon fill="#595959" points="570.857,33.692 569.835,32.671 567.061,32.671 566.039,33.692 			"/>
			<polygon fill="#373737" points="566.039,33.692 567.061,32.669 567.061,29.896 566.039,28.873 			"/>
			<rect x="586.52" y="164.47" fill="#404040" width="7.179" height="7.178"/>
			<rect x="588.722" y="166.673" width="2.771" height="2.771"/>
			<polygon fill="#2A2A29" points="587.699,165.649 588.721,166.671 591.496,166.671 592.517,165.649 			"/>
			<polygon fill="#474747" points="592.518,165.649 591.496,166.675 591.496,169.447 592.518,170.468 			"/>
			<polygon fill="#595959" points="592.517,170.468 591.496,169.447 588.721,169.447 587.699,170.468 			"/>
			<polygon fill="#373737" points="587.699,170.468 588.721,169.445 588.721,166.671 587.699,165.649 			"/>
			<rect x="579.322" y="164.47" fill="#404040" width="7.178" height="7.178"/>
			<rect x="581.524" y="166.673" width="2.774" height="2.771"/>
			<polygon fill="#2A2A29" points="580.5,165.649 581.522,166.671 584.296,166.671 585.318,165.649 			"/>
			<polygon fill="#474747" points="585.32,165.649 584.296,166.675 584.296,169.447 585.32,170.468 			"/>
			<polygon fill="#595959" points="585.318,170.468 584.296,169.447 581.522,169.447 580.5,170.468 			"/>
			<polygon fill="#373737" points="580.5,170.468 581.522,169.445 581.522,166.671 580.5,165.649 			"/>
			<rect x="572.123" y="164.47" fill="#404040" width="7.178" height="7.178"/>
			<rect x="574.324" y="166.673" width="2.774" height="2.771"/>
			<polygon fill="#2A2A29" points="573.301,165.649 574.324,166.671 577.098,166.671 578.119,165.649 			"/>
			<polygon fill="#474747" points="578.121,165.649 577.098,166.675 577.098,169.447 578.121,170.468 			"/>
			<polygon fill="#595959" points="578.119,170.468 577.098,169.447 574.324,169.447 573.301,170.468 			"/>
			<polygon fill="#373737" points="573.301,170.468 574.324,169.445 574.324,166.671 573.301,165.649 			"/>
			<rect x="593.697" y="164.47" fill="#404040" width="7.18" height="7.178"/>
			<rect x="595.9" y="166.673" width="2.771" height="2.771"/>
			<polygon fill="#2A2A29" points="594.876,165.649 595.899,166.671 598.671,166.671 599.695,165.649 			"/>
			<polygon fill="#474747" points="599.697,165.649 598.671,166.675 598.671,169.447 599.697,170.468 			"/>
			<polygon fill="#595959" points="599.695,170.468 598.671,169.447 595.897,169.447 594.876,170.468 			"/>
			<polygon fill="#373737" points="594.876,170.468 595.897,169.445 595.897,166.671 594.876,165.649 			"/>
			<rect x="600.875" y="164.47" fill="#404040" width="7.18" height="7.178"/>
			<rect x="603.078" y="166.673" width="2.773" height="2.771"/>
			<polygon fill="#2A2A29" points="602.054,165.649 603.076,166.671 605.852,166.671 606.873,165.649 			"/>
			<polygon fill="#474747" points="606.873,165.649 605.852,166.675 605.852,169.447 606.873,170.468 			"/>
			<polygon fill="#595959" points="606.873,170.468 605.852,169.447 603.076,169.447 602.054,170.468 			"/>
			<polygon fill="#373737" points="602.054,170.468 603.076,169.445 603.076,166.671 602.054,165.649 			"/>
			<rect x="608.052" y="164.47" fill="#404040" width="7.179" height="7.178"/>
			<rect x="610.253" y="166.673" width="2.773" height="2.771"/>
			<polygon fill="#2A2A29" points="609.23,165.649 610.253,166.671 613.029,166.671 614.05,165.649 			"/>
			<polygon fill="#474747" points="614.051,165.649 613.029,166.675 613.029,169.447 614.051,170.468 			"/>
			<polygon fill="#595959" points="614.05,170.468 613.027,169.447 610.253,169.447 609.23,170.468 			"/>
			<polygon fill="#373737" points="609.23,170.468 610.253,169.445 610.253,166.671 609.23,165.649 			"/>
			<rect x="622.514" y="164.47" fill="#404040" width="7.178" height="7.178"/>
			<rect x="624.717" y="166.673" width="2.771" height="2.771"/>
			<polygon fill="#2A2A29" points="623.695,165.649 624.714,166.671 627.49,166.671 628.511,165.649 			"/>
			<polygon fill="#474747" points="628.513,165.649 627.49,166.675 627.49,169.447 628.513,170.468 			"/>
			<polygon fill="#595959" points="628.511,170.468 627.488,169.447 624.714,169.447 623.695,170.468 			"/>
			<polygon fill="#373737" points="623.695,170.468 624.714,169.445 624.714,166.671 623.695,165.649 			"/>
			<rect x="629.692" y="164.47" fill="#404040" width="7.179" height="7.178"/>
			<rect x="631.894" y="166.673" width="2.773" height="2.771"/>
			<polygon fill="#2A2A29" points="630.873,165.649 631.894,166.671 634.667,166.671 635.691,165.649 			"/>
			<polygon fill="#474747" points="635.691,165.649 634.667,166.675 634.667,169.447 635.691,170.468 			"/>
			<polygon fill="#595959" points="635.689,170.468 634.666,169.447 631.892,169.447 630.873,170.468 			"/>
			<polygon fill="#373737" points="630.869,170.468 631.892,169.445 631.892,166.671 630.869,165.649 			"/>
			<rect x="636.869" y="164.47" fill="#404040" width="7.182" height="7.178"/>
			<rect x="639.072" y="166.673" width="2.772" height="2.771"/>
			<polygon fill="#2A2A29" points="638.046,165.649 639.07,166.671 641.844,166.671 642.867,165.649 			"/>
			<polygon fill="#474747" points="642.867,165.649 641.844,166.675 641.844,169.447 642.867,170.468 			"/>
			<polygon fill="#595959" points="642.867,170.468 641.844,169.447 639.07,169.447 638.046,170.468 			"/>
			<polygon fill="#373737" points="638.046,170.468 639.07,169.445 639.07,166.671 638.046,165.649 			"/>
			<rect x="644.046" y="164.47" fill="#404040" width="7.178" height="7.178"/>
			<rect x="646.25" y="166.673" width="2.771" height="2.771"/>
			<polygon fill="#2A2A29" points="645.226,165.649 646.248,166.671 649.023,166.671 650.044,165.649 			"/>
			<polygon fill="#474747" points="650.044,165.649 649.023,166.675 649.023,169.447 650.044,170.468 			"/>
			<polygon fill="#595959" points="650.044,170.468 649.022,169.447 646.248,169.447 645.226,170.468 			"/>
			<polygon fill="#373737" points="645.226,170.468 646.248,169.445 646.248,166.671 645.226,165.649 			"/>
			<rect x="651.224" y="164.47" fill="#404040" width="7.177" height="7.178"/>
			<rect x="653.426" y="166.673" width="2.771" height="2.771"/>
			<polygon fill="#2A2A29" points="652.402,165.649 653.426,166.671 656.199,166.671 657.22,165.649 			"/>
			<polygon fill="#474747" points="657.223,165.649 656.199,166.675 656.199,169.447 657.223,170.468 			"/>
			<polygon fill="#595959" points="657.22,170.468 656.197,169.447 653.426,169.447 652.402,170.468 			"/>
			<polygon fill="#373737" points="652.402,170.468 653.426,169.445 653.426,166.671 652.402,165.649 			"/>
			<rect x="658.401" y="164.47" fill="#404040" width="7.179" height="7.178"/>
			<rect x="660.604" y="166.673" width="2.771" height="2.771"/>
			<polygon fill="#2A2A29" points="659.58,165.649 660.601,166.671 663.376,166.671 664.398,165.649 			"/>
			<polygon fill="#474747" points="664.4,165.649 663.376,166.675 663.376,169.447 664.4,170.468 			"/>
			<polygon fill="#595959" points="664.398,170.468 663.375,169.447 660.601,169.447 659.58,170.468 			"/>
			<polygon fill="#373737" points="659.58,170.468 660.601,169.445 660.601,166.671 659.58,165.649 			"/>
			<rect x="572.039" y="27.694" fill="#404040" width="7.179" height="7.178"/>
			<rect x="574.24" y="29.896" width="2.773" height="2.773"/>
			<polygon fill="#2A2A29" points="573.217,28.873 574.24,29.896 577.014,29.896 578.035,28.873 			"/>
			<polygon fill="#474747" points="578.035,28.873 577.014,29.899 577.014,32.671 578.035,33.692 			"/>
			<polygon fill="#595959" points="578.035,33.692 577.012,32.671 574.24,32.671 573.217,33.692 			"/>
			<polygon fill="#373737" points="573.214,33.692 574.24,32.669 574.24,29.896 573.214,28.873 			"/>
			<rect x="579.214" y="27.694" fill="#404040" width="7.18" height="7.178"/>
			<rect x="581.417" y="29.896" width="2.771" height="2.773"/>
			<polygon fill="#2A2A29" points="580.395,28.873 581.417,29.896 584.191,29.896 585.212,28.873 			"/>
			<polygon fill="#474747" points="585.212,28.873 584.191,29.899 584.191,32.671 585.212,33.692 			"/>
			<polygon fill="#595959" points="585.212,33.692 584.19,32.671 581.416,32.671 580.395,33.692 			"/>
			<polygon fill="#373737" points="580.394,33.692 581.416,32.669 581.416,29.896 580.394,28.873 			"/>
			<rect x="586.393" y="27.694" fill="#404040" width="7.179" height="7.178"/>
			<rect x="588.596" y="29.896" width="2.772" height="2.773"/>
			<polygon fill="#2A2A29" points="587.574,28.873 588.594,29.896 591.369,29.896 592.392,28.873 			"/>
			<polygon fill="#474747" points="592.392,28.873 591.369,29.899 591.369,32.671 592.392,33.692 			"/>
			<polygon fill="#595959" points="592.391,33.692 591.369,32.671 588.594,32.671 587.574,33.692 			"/>
			<polygon fill="#373737" points="587.572,33.692 588.594,32.669 588.594,29.896 587.572,28.873 			"/>
			<rect x="593.57" y="27.694" fill="#404040" width="7.18" height="7.178"/>
			<rect x="595.774" y="29.896" width="2.772" height="2.773"/>
			<polygon fill="#2A2A29" points="594.75,28.873 595.772,29.896 598.546,29.896 599.57,28.873 			"/>
			<polygon fill="#474747" points="599.57,28.873 598.546,29.899 598.546,32.671 599.57,33.692 			"/>
			<polygon fill="#595959" points="599.568,33.692 598.544,32.671 595.772,32.671 594.75,33.692 			"/>
			<polygon fill="#373737" points="594.748,33.692 595.772,32.669 595.772,29.896 594.748,28.873 			"/>
			<rect x="608.115" y="27.694" fill="#404040" width="7.182" height="7.178"/>
			<rect x="610.32" y="29.896" width="2.771" height="2.773"/>
			<polygon fill="#2A2A29" points="609.294,28.873 610.317,29.896 613.092,29.896 614.113,28.873 			"/>
			<polygon fill="#474747" points="614.113,28.873 613.092,29.899 613.092,32.671 614.113,33.692 			"/>
			<polygon fill="#595959" points="614.113,33.692 613.091,32.671 610.317,32.671 609.294,33.692 			"/>
			<polygon fill="#373737" points="609.294,33.692 610.317,32.669 610.317,29.896 609.294,28.873 			"/>
			<rect x="615.294" y="27.694" fill="#404040" width="7.176" height="7.178"/>
			<rect x="617.498" y="29.896" width="2.771" height="2.773"/>
			<polygon fill="#2A2A29" points="616.473,28.873 617.498,29.896 620.27,29.896 621.291,28.873 			"/>
			<polygon fill="#474747" points="621.292,28.873 620.27,29.899 620.27,32.671 621.292,33.692 			"/>
			<polygon fill="#595959" points="621.291,33.692 620.27,32.671 617.496,32.671 616.473,33.692 			"/>
			<polygon fill="#373737" points="616.473,33.692 617.496,32.669 617.496,29.896 616.473,28.873 			"/>
			<rect x="622.47" y="27.694" fill="#404040" width="7.182" height="7.178"/>
			<rect x="624.674" y="29.896" width="2.771" height="2.773"/>
			<polygon fill="#2A2A29" points="623.652,28.873 624.674,29.896 627.447,29.896 628.47,28.873 			"/>
			<polygon fill="#474747" points="628.47,28.873 627.447,29.899 627.447,32.671 628.47,33.692 			"/>
			<polygon fill="#595959" points="628.468,33.692 627.447,32.671 624.671,32.671 623.652,33.692 			"/>
			<polygon fill="#373737" points="623.65,33.692 624.671,32.669 624.671,29.896 623.65,28.873 			"/>
			<rect x="629.649" y="27.694" fill="#404040" width="7.179" height="7.178"/>
			<rect x="631.852" y="29.896" width="2.772" height="2.773"/>
			<polygon fill="#2A2A29" points="630.828,28.873 631.85,29.896 634.625,29.896 635.647,28.873 			"/>
			<polygon fill="#474747" points="635.647,28.873 634.625,29.899 634.625,32.671 635.647,33.692 			"/>
			<polygon fill="#595959" points="635.647,33.692 634.623,32.671 631.85,32.671 630.828,33.692 			"/>
			<polygon fill="#373737" points="630.828,33.692 631.85,32.669 631.85,29.896 630.828,28.873 			"/>
			<rect x="636.826" y="27.694" fill="#404040" width="7.18" height="7.178"/>
			<rect x="639.029" y="29.896" width="2.773" height="2.773"/>
			<polygon fill="#2A2A29" points="638.005,28.873 639.027,29.896 641.802,29.896 642.824,28.873 			"/>
			<polygon fill="#474747" points="642.824,28.873 641.802,29.899 641.802,32.671 642.824,33.692 			"/>
			<polygon fill="#595959" points="642.824,33.692 641.802,32.671 639.027,32.671 638.005,33.692 			"/>
			<polygon fill="#373737" points="638.005,33.692 639.027,32.669 639.027,29.896 638.005,28.873 			"/>
			<rect x="644.003" y="27.694" fill="#404040" width="7.18" height="7.178"/>
			<rect x="646.207" y="29.896" width="2.771" height="2.773"/>
			<polygon fill="#2A2A29" points="645.184,28.873 646.207,29.896 648.979,29.896 650.001,28.873 			"/>
			<polygon fill="#474747" points="650.001,28.873 648.979,29.899 648.979,32.671 650.001,33.692 			"/>
			<polygon fill="#595959" points="650.001,33.692 648.979,32.671 646.207,32.671 645.184,33.692 			"/>
			<polygon fill="#373737" points="645.182,33.692 646.207,32.669 646.207,29.896 645.182,28.873 			"/>
			<rect x="651.182" y="27.694" fill="#404040" width="7.179" height="7.178"/>
			<rect x="653.384" y="29.896" width="2.771" height="2.773"/>
			<polygon fill="#2A2A29" points="652.361,28.873 653.384,29.896 656.156,29.896 657.18,28.873 			"/>
			<polygon fill="#474747" points="657.181,28.873 656.156,29.899 656.156,32.671 657.181,33.692 			"/>
			<polygon fill="#595959" points="657.18,33.692 656.156,32.671 653.383,32.671 652.361,33.692 			"/>
			<polygon fill="#373737" points="652.358,33.692 653.383,32.669 653.383,29.896 652.358,28.873 			"/>
			<rect x="658.359" y="27.694" fill="#404040" width="7.182" height="7.178"/>
			<rect x="660.562" y="29.896" width="2.773" height="2.773"/>
			<polygon fill="#2A2A29" points="659.539,28.873 660.561,29.896 663.335,29.896 664.358,28.873 			"/>
			<polygon fill="#474747" points="664.358,28.873 663.335,29.899 663.335,32.671 664.358,33.692 			"/>
			<polygon fill="#595959" points="664.356,33.692 663.333,32.671 660.561,32.671 659.539,33.692 			"/>
			<polygon fill="#373737" points="659.539,33.692 660.561,32.669 660.561,29.896 659.539,28.873 			"/>
			<g>
				<text transform="matrix(0 -1 1 0 548.9263 49.793)" fill="#FFFFFF" font-family="'ArialMT'" font-size="5">AREF</text>
				<text transform="matrix(0 -1 1 0 555.9263 46.3672)" fill="#FFFFFF" font-family="'ArialMT'" font-size="5">GND</text>
				<text transform="matrix(0 -1 1 0 577.4858 162.6475)" fill="#FFFFFF" font-family="'ArialMT'" font-size="5">RESET</text>
				<text transform="matrix(0 -1 1 0 584.4858 162.6475)" fill="#FFFFFF" font-family="'ArialMT'" font-size="5">3V3</text>
				<text transform="matrix(0 -1 1 0 577.3784 59.7539)" fill="#FFFFFF" font-family="'ArialMT'" font-size="5">PWM</text>
				<text transform="matrix(0 -1 1 0 584.6772 59.7539)" fill="#FFFFFF" font-family="'ArialMT'" font-size="5">PWM</text>
				<text transform="matrix(0 -1 1 0 591.978 59.7539)" fill="#FFFFFF" font-family="'ArialMT'" font-size="5">PWM</text>
				<text transform="matrix(1 0 0 1 564.4067 59.8125)" fill="#FFFFFF" font-family="'ArialMT'" font-size="5">L</text>
				<text transform="matrix(1 0 0 1 564.4067 71.8125)" fill="#FFFFFF" font-family="'ArialMT'" font-size="5">TX</text>
				<text transform="matrix(1 0 0 1 564.4067 77.8125)" fill="#FFFFFF" font-family="'ArialMT'" font-size="5">RX</text>
				<text transform="matrix(1 0 0 1 503.8755 101.0312)" fill="#FFFFFF" font-family="'ArialMT'" font-size="5">USB</text>
				<text transform="matrix(1 0 0 1 503.8755 110.0312)" fill="#FFFFFF" font-family="'ArialMT'" font-size="5">EXT</text>
				<text transform="matrix(0 -1 1 0 491.2593 115.5586)" fill="#FFFFFF" font-family="'ArialMT'" font-size="5">PWR</text>
				<text transform="matrix(0 -1 1 0 491.2593 102.3516)" fill="#FFFFFF" font-family="'ArialMT'" font-size="5">SEL</text>
				<text transform="matrix(1 0 0 1 655.0942 75.1016)" fill="#FFFFFF" font-family="'ArialMT'" font-size="5">PWR</text>
				<text transform="matrix(1 0 0 1 659.2173 112.5537)" fill="#FFFFFF" font-family="'ArialMT'" font-size="5">ICSP</text>
				<text transform="matrix(0 -1 1 0 621.2202 59.7539)" fill="#FFFFFF" font-family="'ArialMT'" font-size="5">PWM</text>
				<text transform="matrix(0 -1 1 0 628.3696 59.7539)" fill="#FFFFFF" font-family="'ArialMT'" font-size="5">PWM</text>
				<text transform="matrix(0 -1 1 0 642.6704 59.7539)" fill="#FFFFFF" font-family="'ArialMT'" font-size="5">PWM</text>
				<text transform="matrix(0 -1 1 0 657.1997 50.2188)" fill="#FFFFFF" font-family="'ArialMT'" font-size="5">TX</text>
				<text transform="matrix(0 -1 1 0 664.3491 50.2188)" fill="#FFFFFF" font-family="'ArialMT'" font-size="5">RX</text>
				<text transform="matrix(1 0 0 1 559.6157 41.5664)" fill="#FFFFFF" font-family="'ArialMT'" font-size="5">3</text>
				<text transform="matrix(1 0 0 1 559.6157 47.5664)" fill="#FFFFFF" font-family="'ArialMT'" font-size="5">1</text>
				<text transform="matrix(1 0 0 1 566.7915 41.5664)" fill="#FFFFFF" font-family="'ArialMT'" font-size="5">2</text>
				<text transform="matrix(1 0 0 1 566.7915 47.5664)" fill="#FFFFFF" font-family="'ArialMT'" font-size="5">1</text>
				<text transform="matrix(1 0 0 1 573.9692 41.5664)" fill="#FFFFFF" font-family="'ArialMT'" font-size="5">1</text>
				<text transform="matrix(1 0 0 1 573.9692 47.5664)" fill="#FFFFFF" font-family="'ArialMT'" font-size="5">1</text>
				<text transform="matrix(1 0 0 1 581.145 41.5664)" fill="#FFFFFF" font-family="'ArialMT'" font-size="5">0</text>
				<text transform="matrix(1 0 0 1 581.145 47.5664)" fill="#FFFFFF" font-family="'ArialMT'" font-size="5">1</text>
				<text transform="matrix(1 0 0 1 588.3218 41.5664)" fill="#FFFFFF" font-family="'ArialMT'" font-size="5">9</text>
				<text transform="matrix(1 0 0 1 595.4985 41.5664)" fill="#FFFFFF" font-family="'ArialMT'" font-size="5">8</text>
				<text transform="matrix(1 0 0 1 592.728 47.6348)" fill="#FFFFFF" font-family="'ArialMT'" font-size="5">DIGITAL</text>
				<text transform="matrix(1 0 0 1 609.896 41.5664)" fill="#FFFFFF" font-family="'ArialMT'" font-size="5">7</text>
				<text transform="matrix(1 0 0 1 617.0815 41.5664)" fill="#FFFFFF" font-family="'ArialMT'" font-size="5">6</text>
				<text transform="matrix(1 0 0 1 624.2661 41.5664)" fill="#FFFFFF" font-family="'ArialMT'" font-size="5">5</text>
				<text transform="matrix(1 0 0 1 631.4497 41.5664)" fill="#FFFFFF" font-family="'ArialMT'" font-size="5">4</text>
				<text transform="matrix(1 0 0 1 638.6333 41.5664)" fill="#FFFFFF" font-family="'ArialMT'" font-size="5">3</text>
				<text transform="matrix(1 0 0 1 645.8188 41.5664)" fill="#FFFFFF" font-family="'ArialMT'" font-size="5">2</text>
				<text transform="matrix(1 0 0 1 653.0034 41.5664)" fill="#FFFFFF" font-family="'ArialMT'" font-size="5">1</text>
				<text transform="matrix(1 0 0 1 660.187 41.5664)" fill="#FFFFFF" font-family="'ArialMT'" font-size="5">0</text>
				<text transform="matrix(0 -1 1 0 663.6851 84.3672)" fill="#FFFFFF" font-family="'ArialMT'" font-size="5">1</text>
				<text transform="matrix(1 0 0 1 586.0151 162.1367)" fill="#FFFFFF" font-family="'ArialMT'" font-size="5">5V</text>
				<text transform="matrix(1 0 0 1 595.5376 162.1367)" fill="#FFFFFF" font-family="'ArialMT'" font-size="5">Gnd</text>
				<text transform="matrix(1 0 0 1 591.0298 155.5576)" fill="#FFFFFF" font-family="'ArialMT'" font-size="5">POWER</text>
				<text transform="matrix(1 0 0 1 593.7983 145.5146)" fill="#FFFFFF" font-family="'ArialMT'" font-size="5">www.arduino.cc</text>
				<text transform="matrix(1 0 0 1 628.0298 155.3594)" fill="#FFFFFF" font-family="'ArialMT'" font-size="5">ANALOG IN</text>
				<text transform="matrix(1 0 0 1 608.5093 162.1367)" fill="#FFFFFF" font-family="'ArialMT'" font-size="5">9V</text>
				<text transform="matrix(1 0 0 1 624.3628 162.1367)" fill="#FFFFFF" font-family="'ArialMT'" font-size="5">0</text>
				<text transform="matrix(1 0 0 1 631.561 162.1367)" fill="#FFFFFF" font-family="'ArialMT'" font-size="5">1</text>
				<text transform="matrix(1 0 0 1 638.7583 162.1367)" fill="#FFFFFF" font-family="'ArialMT'" font-size="5">2</text>
				<text transform="matrix(1 0 0 1 645.9565 162.1367)" fill="#FFFFFF" font-family="'ArialMT'" font-size="5">3</text>
				<text transform="matrix(1 0 0 1 653.1538 162.1367)" fill="#FFFFFF" font-family="'ArialMT'" font-size="5">4</text>
				<text transform="matrix(1 0 0 1 660.3501 162.1367)" fill="#FFFFFF" font-family="'ArialMT'" font-size="5">5</text>
				<text transform="matrix(1 0 0 1 578.9868 75.165)" fill="#FFFFFF" font-family="'ArialMT'" font-size="9.1394">Arduino</text>
			</g>
		</g>
	</g>
	<path id="midusb" fill="#3A3A3A" d="M237.646,93.157l-11.247,1.96l73.315,0.772c0,0,9.785-1.271,10-9.832
		c0.333-13.263,11.706-14.247,18.956-14.247l67.296-0.132l29.343-7.906H320.546c0,0-12.831,1.455-16.831,12.562
		c-1.75,4.859,2.333,16.161-11.333,16.327S237.646,93.157,237.646,93.157z"/>
	<g id="starklabtext" opacity="0.7">
		<g>
			<path fill="#292929" d="M98.486,48.985c-1.837,1.419-2.717,2.13-4.403,3.55c-0.116-0.412-0.174-0.617-0.291-1.029
				c1.461-1.169,2.218-1.754,3.784-2.924c-0.003-0.012-0.004-0.018-0.007-0.029c-2.118-1.169-3.204-1.755-5.427-2.924
				c-0.116-0.411-0.174-0.618-0.29-1.029c2.652,1.42,3.941,2.13,6.443,3.55C98.371,48.484,98.41,48.65,98.486,48.985z"/>
			<path fill="#292929" d="M100.419,50.954c0.522,0.358,1.229,0.656,1.909,0.656c1.01,0,1.473-0.7,1.291-1.716
				c-0.169-0.94-0.69-1.5-1.853-1.999c-1.38-0.593-2.401-1.433-2.705-2.849c-0.336-1.566,0.494-2.729,2.119-2.729
				c0.856,0,1.518,0.24,1.933,0.493c-0.045,0.423-0.067,0.635-0.111,1.059c-0.301-0.179-0.907-0.478-1.655-0.478
				c-1.13,0-1.392,0.821-1.252,1.507c0.191,0.94,0.782,1.403,1.988,1.939c1.479,0.657,2.295,1.477,2.545,2.953
				c0.263,1.552-0.374,2.895-2.158,2.895c-0.729,0-1.583-0.283-2.067-0.641C100.409,51.608,100.412,51.39,100.419,50.954z"/>
			<path fill="#292929" d="M106.605,43.585c-1.005,0-1.508,0-2.513,0c-0.073-0.441-0.108-0.663-0.181-1.104c2.471,0,3.706,0,6.177,0
				c0.048,0.441,0.072,0.662,0.12,1.104c-1.01,0-1.516,0-2.525,0c0.469,3.579,0.705,5.369,1.174,8.949c-0.396,0-0.593,0-0.988,0
				C107.364,48.954,107.11,47.166,106.605,43.585z"/>
			<path fill="#292929" d="M112.096,49.373c-0.204,1.265-0.301,1.896-0.484,3.162c-0.404,0-0.606,0-1.011,0
				c0.572-4.022,0.912-6.032,1.693-10.054c0.52,0,0.78,0,1.3,0c1.443,4.022,2.112,6.032,3.344,10.054c-0.418,0-0.627,0-1.045,0
				c-0.399-1.266-0.604-1.897-1.025-3.162C113.759,49.373,113.205,49.373,112.096,49.373z M114.587,48.358
				c-0.391-1.157-0.589-1.735-0.997-2.893c-0.232-0.656-0.402-1.253-0.571-1.835c-0.01,0-0.015,0-0.025,0
				c-0.073,0.597-0.156,1.208-0.26,1.82c-0.218,1.163-0.323,1.745-0.524,2.909C113.162,48.358,113.636,48.358,114.587,48.358z"/>
			<path fill="#292929" d="M117.672,42.615c0.539-0.134,1.318-0.209,2.061-0.209c1.153,0,1.9,0.261,2.415,0.821
				c0.412,0.448,0.641,1.134,0.633,1.909c-0.012,1.328-0.684,2.208-1.519,2.566c0,0.018,0,0.027,0,0.044
				c0.614,0.269,0.974,0.987,1.154,2.028c0.243,1.4,0.415,2.372,0.568,2.76c-0.404,0-0.607,0-1.011,0
				c-0.124-0.284-0.297-1.152-0.514-2.401c-0.239-1.381-0.663-1.909-1.59-1.955c-0.386,0-0.578,0-0.962,0
				c0.049,1.743,0.074,2.613,0.123,4.356c-0.392,0-0.586,0-0.978,0C117.898,48.566,117.823,46.584,117.672,42.615z M118.876,47.195
				c0.422,0,0.633,0,1.055,0c1.102,0,1.8-0.761,1.8-1.91c-0.001-1.297-0.782-1.872-1.904-1.879c-0.512-0.003-0.883,0.06-1.054,0.12
				C118.813,44.993,118.834,45.728,118.876,47.195z"/>
			<path fill="#292929" d="M124.328,42.481c0.431,0,0.647,0,1.078,0c-0.064,1.94-0.096,2.909-0.161,4.848c0.014,0,0.021,0,0.036,0
				c0.226-0.388,0.453-0.746,0.669-1.075c1.044-1.51,1.583-2.264,2.699-3.773c0.535,0,0.802,0,1.337,0
				c-1.336,1.707-1.981,2.56-3.225,4.267c1.142,2.315,1.679,3.472,2.682,5.788c-0.463,0-0.695,0-1.158,0
				c-0.868-1.976-1.326-2.962-2.294-4.938c-0.32,0.441-0.478,0.662-0.792,1.104c-0.051,1.534-0.076,2.3-0.127,3.833
				c-0.391,0-0.587,0-0.978,0C124.188,48.512,124.235,46.503,124.328,42.481z"/>
			<path fill="#292929" d="M133.664,42.481c0.431,0,0.647,0,1.078,0c-0.427,3.587-0.64,5.38-1.067,8.965c1.309,0,1.963,0,3.272,0
				c-0.066,0.436-0.1,0.653-0.166,1.089c-1.685,0-2.527,0-4.213,0C133.006,48.512,133.225,46.503,133.664,42.481z"/>
			<path fill="#292929" d="M139.65,49.373c-0.546,1.265-0.815,1.896-1.342,3.162c-0.405,0-0.607,0-1.012,0
				c1.661-4.022,2.544-6.032,4.416-10.054c0.52,0,0.779,0,1.299,0c0.354,4.023,0.48,6.032,0.624,10.054c-0.418,0-0.628,0-1.045,0
				c-0.057-1.266-0.089-1.897-0.167-3.162C141.313,49.373,140.759,49.373,139.65,49.373z M142.416,48.358
				c-0.077-1.157-0.12-1.736-0.214-2.893c-0.054-0.656-0.062-1.253-0.075-1.834c-0.009,0-0.015,0-0.024,0
				c-0.236,0.596-0.482,1.209-0.752,1.82c-0.533,1.163-0.796,1.745-1.312,2.908C140.989,48.358,141.465,48.358,142.416,48.358z"/>
			<path fill="#292929" d="M147.055,42.615c0.498-0.119,1.262-0.209,2.019-0.209c1.078,0,1.71,0.249,2.093,0.731
				c0.305,0.386,0.417,0.984,0.196,1.775c-0.27,0.97-1.021,1.819-1.966,2.208c-0.003,0.012-0.004,0.019-0.008,0.03
				c0.695,0.238,1.357,1.03,0.938,2.521c-0.243,0.865-0.692,1.532-1.212,2.013c-0.694,0.642-1.639,0.94-2.874,0.94
				c-0.673,0-1.175-0.061-1.487-0.119C145.674,48.548,146.134,46.572,147.055,42.615z M147.132,46.732c0.376,0,0.564,0,0.94,0
				c1.095,0,1.928-0.716,2.189-1.686c0.315-1.179-0.297-1.64-1.377-1.64c-0.491,0-0.784,0.044-0.966,0.088
				C147.603,44.79,147.446,45.437,147.132,46.732z M145.963,51.551c0.182,0.044,0.461,0.059,0.813,0.059
				c1.021,0,2.096-0.492,2.491-1.953c0.372-1.373-0.406-1.939-1.525-1.939c-0.34,0-0.509,0-0.849,0
				C146.522,49.25,146.335,50.018,145.963,51.551z"/>
			<polygon opacity="0.7" points="158.626,52.816 153.478,52.816 155.437,42.509 161.148,42.509 			">
				<animate attributeName="opacity" 
		     values="0.7;0;0.7"  dur="0.5s" fill="freeze"
		     repeatCount="indefinite" />
				</polygon>

		</g>
	</g>
</g>
<g id="computer">
</g>

</svg>
